<svg width="48" height="49" viewBox="0 0 48 49" fill="none" xmlns="http://www.w3.org/2000/svg">
<g clip-path="url(#clip0)">
<path d="M40.4215 18.6076V16.7622C40.4215 12.3454 38.8585 8.24118 36.0249 5.19581C33.1207 2.06975 29.1274 0.355469 24.7711 0.355469H23.2484C18.8921 0.355469 14.8988 2.06975 11.9946 5.19581C9.161 8.24118 7.59797 12.3454 7.59797 16.7622V18.6076C4.15932 18.8395 1.42654 21.7034 1.42654 25.2025V28.0866C1.42654 31.7269 4.39125 34.6916 8.03159 34.6916H11.7526C12.4181 34.6916 12.9627 34.1471 12.9627 33.4815V19.7975C12.9627 19.1319 12.4181 18.5874 11.7526 18.5874H10.0181V16.7622C10.0181 8.78572 15.7055 2.77564 23.2383 2.77564H24.761C32.3039 2.77564 37.9812 8.78572 37.9812 16.7622V18.5874H36.2467C35.5812 18.5874 35.0366 19.1319 35.0366 19.7975V33.4714C35.0366 34.137 35.5812 34.6815 36.2467 34.6815H37.9408C37.4467 40.9941 33.1005 42.4563 31.0837 42.7891C30.5291 41.0849 28.9257 39.8546 27.04 39.8546H24.0148C21.6753 39.8546 19.7694 41.7605 19.7694 44.1C19.7694 46.4395 21.6753 48.3555 24.0148 48.3555H27.0501C29.0064 48.3555 30.6501 47.0244 31.1442 45.2294C32.1324 45.0882 33.6954 44.7353 35.2484 43.8277C37.4366 42.5471 40.0282 39.9353 40.3711 34.6714C43.8299 34.4597 46.5728 31.5857 46.5728 28.0765V25.1924C46.5828 21.7034 43.8602 18.8294 40.4215 18.6076ZM10.5627 32.2614H8.05175C5.74251 32.2614 3.86688 30.3857 3.86688 28.0765V25.1924C3.86688 22.8832 5.74251 21.0076 8.05175 21.0076H10.5627V32.2614ZM27.0501 45.9353H24.0148C23.0064 45.9353 22.1896 45.1185 22.1896 44.1101C22.1896 43.1017 23.0064 42.2849 24.0148 42.2849H27.0501C28.0585 42.2849 28.8753 43.1017 28.8753 44.1101C28.8753 45.1185 28.0585 45.9353 27.0501 45.9353ZM44.1627 28.0765C44.1627 30.3857 42.287 32.2614 39.9778 32.2614H37.4669V21.0076H39.9778C42.287 21.0076 44.1627 22.8832 44.1627 25.1924V28.0765Z" fill="#FF741A"/>
</g>
<defs>
<clipPath id="clip0">
<rect width="48" height="48" fill="white" transform="translate(0 0.355469)"/>
</clipPath>
</defs>
</svg>
