<svg width="48" height="49" viewBox="0 0 48 49" fill="none" xmlns="http://www.w3.org/2000/svg">
<path d="M46.7608 12.7767L37.3396 0.828071C37.1033 0.530126 36.7539 0.355469 36.3738 0.355469H11.6341C11.2539 0.355469 10.9046 0.530126 10.6683 0.828071L1.24709 12.7767C1.07243 12.9925 0.979965 13.2596 0.979965 13.537V47.1226C0.979965 47.8007 1.53476 48.3555 2.21284 48.3555H45.7848C46.4628 48.3555 47.0176 47.8007 47.0176 47.1226V13.537C47.0279 13.2596 46.9354 12.9925 46.7608 12.7767ZM43.4115 12.5096H25.2368V2.82122H35.7779L43.4115 12.5096ZM12.23 2.82122H22.7711V12.5096H4.5964L12.23 2.82122ZM3.44572 45.8897V14.9753H44.5519V45.8897H3.44572Z" fill="#FF741A"/>
<path d="M29.8488 24.8999L21.5886 33.1602L18.1571 29.7287C17.6742 29.2458 16.8934 29.2458 16.4105 29.7287C15.9276 30.2116 15.9276 30.9924 16.4105 31.4753L20.7153 35.7801C20.9516 36.0164 21.2701 36.1397 21.5886 36.1397C21.9071 36.1397 22.2153 36.0164 22.4618 35.7801L31.5851 26.6568C32.068 26.1739 32.068 25.3931 31.5851 24.9102C31.1125 24.4171 30.3317 24.4171 29.8488 24.8999Z" fill="#FF741A"/>
</svg>
