<svg width="48" height="49" viewBox="0 0 48 49" fill="none" xmlns="http://www.w3.org/2000/svg">
<g clip-path="url(#clip0)">
<path d="M47.9333 30.4388C47.706 29.7371 46.945 29.3615 46.2433 29.5888L25.0054 36.6253C23.9974 34.9947 22.1987 33.9175 20.1431 33.9175C20.064 33.9175 19.985 33.9175 19.9059 33.9175C19.8071 33.9175 19.6984 33.9274 19.5996 33.9372L11.1696 8.54856C11.0609 8.21255 10.8138 7.93584 10.4976 7.77771L1.92928 3.46885C1.26714 3.14272 0.466643 3.39967 0.140514 4.06182C-0.185615 4.72396 0.0713352 5.52446 0.733476 5.85058L8.81753 9.91238L17.0696 34.8168C16.6545 35.0836 16.2691 35.3999 15.9232 35.7754C14.8855 36.902 14.3518 38.3647 14.4111 39.8866C14.5396 42.97 17.0498 45.3814 20.1332 45.3814C20.2123 45.3814 20.2913 45.3814 20.3704 45.3814C23.523 45.2529 25.9838 42.5846 25.8553 39.4221C25.8553 39.3431 25.8454 39.2541 25.8355 39.1751L47.0834 32.1386C47.785 31.9014 48.1606 31.1404 47.9333 30.4388ZM20.2617 42.7032C18.5619 42.7724 17.1486 41.458 17.0795 39.7779C17.0498 38.9576 17.3364 38.1769 17.8899 37.584C18.4433 36.9811 19.1944 36.6352 20.0146 36.6056C20.0542 36.6056 20.1036 36.6056 20.1431 36.6056C21.7836 36.6056 23.1277 37.8903 23.1969 39.5407C23.2562 41.2109 21.9418 42.634 20.2617 42.7032Z" fill="#FF741A"/>
<path d="M22.5723 32.643C22.7601 33.2063 23.2839 33.5621 23.8373 33.5621C23.9757 33.5621 24.114 33.5423 24.2524 33.4929L44.7689 26.6936C45.1049 26.5849 45.3816 26.3378 45.5397 26.0216C45.6979 25.7054 45.7275 25.3397 45.6188 25.0037L38.8887 4.66507C38.78 4.32906 38.5329 4.05235 38.2167 3.89422C37.9004 3.7361 37.5347 3.70645 37.1987 3.81516L26.9405 7.22469L16.6822 10.6243C15.9806 10.8516 15.605 11.6126 15.8323 12.3143L22.5723 32.643ZM26.5155 10.1697L28.1462 15.1012C28.3339 15.6645 28.8577 16.0203 29.4112 16.0203C29.5495 16.0203 29.6879 16.0005 29.8262 15.9511C30.5279 15.7238 30.9035 14.9629 30.6762 14.2612L29.0455 9.32971L36.7738 6.77009L42.6738 24.5787L24.6872 30.538L18.7873 12.7392L26.5155 10.1697Z" fill="#FF741A"/>
</g>
<defs>
<clipPath id="clip0">
<rect width="48" height="48" fill="white" transform="translate(0 0.355469)"/>
</clipPath>
</defs>
</svg>
