<svg width="48" height="42" viewBox="0 0 48 42" fill="none" xmlns="http://www.w3.org/2000/svg">
<path d="M47.9898 36.3667L45.6282 9.8083C45.579 9.24742 45.1067 8.82429 44.5458 8.82429H39.6454C39.606 4.39625 35.9947 0.814453 31.5667 0.814453C27.1386 0.814453 23.5273 4.39625 23.488 8.82429H18.5876C18.0267 8.82429 17.5544 9.25726 17.5052 9.8083L15.1436 36.3667C15.1436 36.3963 15.1436 36.4258 15.1436 36.4651C15.1436 39.4565 17.8889 41.8969 21.2739 41.8969H41.8693C45.2444 41.8969 47.9996 39.4664 47.9996 36.4651C47.9996 36.4258 47.9996 36.3963 47.9898 36.3667ZM31.5765 2.97927C34.8139 2.97927 37.4511 5.59674 37.4904 8.82429H25.6528C25.6921 5.59674 28.3293 2.97927 31.5765 2.97927ZM41.8693 39.7222H21.2739C19.1091 39.7222 17.3379 38.2855 17.3084 36.5045L19.5716 10.9891H23.4781V14.4922C23.4781 15.0924 23.9603 15.5746 24.5605 15.5746C25.1608 15.5746 25.6429 15.0924 25.6429 14.4922V10.9891H37.4806V14.4922C37.4806 15.0924 37.9627 15.5746 38.563 15.5746C39.1632 15.5746 39.6454 15.0924 39.6454 14.4922V10.9891H43.5519L45.8151 36.5045C45.8053 38.2855 44.0341 39.7222 41.8693 39.7222Z" fill="#FF741A"/>
<path d="M12.6249 18.1543H5.20546C4.60521 18.1543 4.12305 18.6365 4.12305 19.2367C4.12305 19.837 4.60521 20.3191 5.20546 20.3191H12.6249C13.2251 20.3191 13.7073 19.837 13.7073 19.2367C13.7073 18.6365 13.2251 18.1543 12.6249 18.1543Z" fill="#FF741A"/>
<path d="M12.6248 23.4258H1.08241C0.482165 23.4258 0 23.9079 0 24.5082C0 25.1084 0.482165 25.5906 1.08241 25.5906H12.6248C13.2251 25.5906 13.7073 25.1084 13.7073 24.5082C13.7073 23.9079 13.2251 23.4258 12.6248 23.4258Z" fill="#FF741A"/>
<path d="M12.6249 28.7012H5.20546C4.60521 28.7012 4.12305 29.1833 4.12305 29.7836C4.12305 30.3838 4.60521 30.866 5.20546 30.866H12.6249C13.2251 30.866 13.7073 30.3838 13.7073 29.7836C13.7073 29.1833 13.2251 28.7012 12.6249 28.7012Z" fill="#FF741A"/>
</svg>
